<?xml version="1.0" encoding="UTF-8" standalone="no"?><!DOCTYPE svg PUBLIC "-//W3C//DTD SVG 1.1//EN" "http://www.w3.org/Graphics/SVG/1.1/DTD/svg11.dtd"><svg width="100%" height="100%" viewBox="0 0 417 417" version="1.1" xmlns="http://www.w3.org/2000/svg" xmlns:xlink="http://www.w3.org/1999/xlink" xml:space="preserve" xmlns:serif="http://www.serif.com/" style="fill-rule:evenodd;clip-rule:evenodd;stroke-linejoin:round;stroke-miterlimit:2;"><circle cx="208.333" cy="208.333" r="187.5" style="fill:#a9a9a9;"/><path d="M383.333,208.333c0,96.585 -78.415,175 -175,175c-96.585,0 -175,-78.415 -175,-175c0,-96.585 78.415,-175 175,-175c96.585,0 175,78.415 175,175Z" style="fill:url(#_Linear1);"/><g><path d="M224.833,323.333l1.98,6.02l6.02,1.98l-6.02,1.98l-1.98,6.02l-1.98,-6.02l-6.02,-1.98l6.02,-1.98l1.98,-6.02Z" style="fill:url(#_Linear2);"/><path d="M130.083,169.833l1.547,4.704l4.703,1.546l-4.703,1.547l-1.547,4.703l-1.546,-4.703l-4.704,-1.547l4.704,-1.546l1.546,-4.704Z" style="fill:url(#_Linear3);"/><path d="M259.833,118.333l1.98,6.02l6.02,1.98l-6.02,1.98l-1.98,6.02l-1.98,-6.02l-6.02,-1.98l6.02,-1.98l1.98,-6.02Z" style="fill:url(#_Linear4);"/><path d="M340.833,264.333l1.238,3.763l3.762,1.237l-3.762,1.238l-1.238,3.762l-1.237,-3.762l-3.763,-1.238l3.763,-1.237l1.237,-3.763Z" style="fill:url(#_Linear5);"/><path d="M115.833,307.333l1.98,6.02l6.02,1.98l-6.02,1.98l-1.98,6.02l-1.98,-6.02l-6.02,-1.98l6.02,-1.98l1.98,-6.02Z" style="fill:url(#_Linear6);"/><path d="M78.833,158.333l1.98,6.02l6.02,1.98l-6.02,1.98l-1.98,6.02l-1.98,-6.02l-6.02,-1.98l6.02,-1.98l1.98,-6.02Z" style="fill:url(#_Linear7);"/><path d="M123.833,77.333l1.98,6.02l6.02,1.98l-6.02,1.98l-1.98,6.02l-1.98,-6.02l-6.02,-1.98l6.02,-1.98l1.98,-6.02Z" style="fill:url(#_Linear8);"/><path d="M177.5,207.667l2.392,7.274l7.275,2.392l-7.275,2.393l-2.392,7.274l-2.392,-7.274l-7.275,-2.393l7.275,-2.392l2.392,-7.274Z" style="fill:url(#_Linear9);"/><path d="M291.333,158.333l2.846,8.654l8.654,2.846l-8.654,2.846l-2.846,8.654l-2.846,-8.654l-8.654,-2.846l8.654,-2.846l2.846,-8.654Z" style="fill:url(#_Linear10);"/><path d="M177.167,268.333l1.485,4.515l4.515,1.485l-4.515,1.485l-1.485,4.515l-1.485,-4.515l-4.515,-1.485l4.515,-1.485l1.485,-4.515Z" style="fill:url(#_Linear11);"/><path d="M183.167,118.333l0.99,3.01l3.01,0.99l-3.01,0.99l-0.99,3.01l-0.99,-3.01l-3.01,-0.99l3.01,-0.99l0.99,-3.01Z" style="fill:url(#_Linear12);"/><path d="M93.167,227l1.567,4.766l4.766,1.567l-4.766,1.568l-1.567,4.766l-1.568,-4.766l-4.766,-1.568l4.766,-1.567l1.568,-4.766Z" style="fill:url(#_Linear13);"/><path d="M248.833,239.667l2.723,8.277l8.277,2.723l-8.277,2.722l-2.723,8.278l-2.722,-8.278l-8.278,-2.722l8.278,-2.723l2.722,-8.277Z" style="fill:url(#_Linear14);"/></g><clipPath id="_clip15"><path d="M383.333,208.333c0,96.585 -78.415,175 -175,175c-96.585,0 -175,-78.415 -175,-175c0,-96.585 78.415,-175 175,-175c96.585,0 175,78.415 175,175Z"/></clipPath><g clip-path="url(#_clip15)"><path d="M330.651,416.667c0,-0 -252.86,11.184 -238.868,-0c9.555,-7.637 65.929,-54.596 68.272,-65.329c3.819,-17.493 -42.251,-76.076 -59.222,-81.385c-26.099,-8.166 -0.467,-66.944 -4.212,-86.935c-5.893,-31.458 -6.907,-45.754 17.94,-72.872c8.584,-9.368 19.114,-15.247 29.445,-22.368c10.144,-6.991 20.372,-15.502 32.871,-17.869c16.055,-3.04 41.556,-0.747 51.247,14.513c5.977,9.41 7.315,25.407 5.86,36.294c-2.948,22.058 -48.32,35.676 -31.113,59.021c20.108,27.282 43.105,23.776 72.897,23.776c14.567,0 41.04,2.296 48.979,17.595c12.732,24.537 -13.192,46.265 -24.71,64.672c-2.147,3.432 -0.727,13.407 -0.727,17.387c-0,10.561 -4.401,20.59 -3.185,31.375c2.272,20.133 -1.168,37.963 11.782,48.791c6.77,5.66 16.99,26.634 22.744,33.334Z" style="fill:url(#_Linear16);"/></g><defs><linearGradient id="_Linear1" x1="0" y1="0" x2="1" y2="0" gradientUnits="userSpaceOnUse" gradientTransform="matrix(2.14313e-14,350,-350,2.14313e-14,208.333,33.3333)"><stop offset="0" style="stop-color:#6c00ff;stop-opacity:1"/><stop offset="1" style="stop-color:#d600ff;stop-opacity:1"/></linearGradient><linearGradient id="_Linear2" x1="0" y1="0" x2="1" y2="0" gradientUnits="userSpaceOnUse" gradientTransform="matrix(16,0,0,16,216.833,323.333)"><stop offset="0" style="stop-color:#ffdf73;stop-opacity:1"/><stop offset="0.46" style="stop-color:#fff8e0;stop-opacity:1"/><stop offset="1" style="stop-color:#fff;stop-opacity:1"/></linearGradient><linearGradient id="_Linear3" x1="0" y1="0" x2="1" y2="0" gradientUnits="userSpaceOnUse" gradientTransform="matrix(12.5,0,0,12.5,123.833,169.833)"><stop offset="0" style="stop-color:#ffdf73;stop-opacity:1"/><stop offset="0.46" style="stop-color:#fff8e0;stop-opacity:1"/><stop offset="1" style="stop-color:#fff;stop-opacity:1"/></linearGradient><linearGradient id="_Linear4" x1="0" y1="0" x2="1" y2="0" gradientUnits="userSpaceOnUse" gradientTransform="matrix(16,0,0,16,251.833,118.333)"><stop offset="0" style="stop-color:#ffdf73;stop-opacity:1"/><stop offset="0.46" style="stop-color:#fff8e0;stop-opacity:1"/><stop offset="1" style="stop-color:#fff;stop-opacity:1"/></linearGradient><linearGradient id="_Linear5" x1="0" y1="0" x2="1" y2="0" gradientUnits="userSpaceOnUse" gradientTransform="matrix(10,0,0,10,335.833,264.333)"><stop offset="0" style="stop-color:#ffdf73;stop-opacity:1"/><stop offset="0.46" style="stop-color:#fff8e0;stop-opacity:1"/><stop offset="1" style="stop-color:#fff;stop-opacity:1"/></linearGradient><linearGradient id="_Linear6" x1="0" y1="0" x2="1" y2="0" gradientUnits="userSpaceOnUse" gradientTransform="matrix(16,0,0,16,107.833,307.333)"><stop offset="0" style="stop-color:#ffdf73;stop-opacity:1"/><stop offset="0.46" style="stop-color:#fff8e0;stop-opacity:1"/><stop offset="1" style="stop-color:#fff;stop-opacity:1"/></linearGradient><linearGradient id="_Linear7" x1="0" y1="0" x2="1" y2="0" gradientUnits="userSpaceOnUse" gradientTransform="matrix(16,0,0,16,70.8333,158.333)"><stop offset="0" style="stop-color:#ffdf73;stop-opacity:1"/><stop offset="0.46" style="stop-color:#fff8e0;stop-opacity:1"/><stop offset="1" style="stop-color:#fff;stop-opacity:1"/></linearGradient><linearGradient id="_Linear8" x1="0" y1="0" x2="1" y2="0" gradientUnits="userSpaceOnUse" gradientTransform="matrix(16,0,0,16,115.833,77.3333)"><stop offset="0" style="stop-color:#ffdf73;stop-opacity:1"/><stop offset="0.46" style="stop-color:#fff8e0;stop-opacity:1"/><stop offset="1" style="stop-color:#fff;stop-opacity:1"/></linearGradient><linearGradient id="_Linear9" x1="0" y1="0" x2="1" y2="0" gradientUnits="userSpaceOnUse" gradientTransform="matrix(19.3333,0,0,19.3333,167.833,207.667)"><stop offset="0" style="stop-color:#ffdf73;stop-opacity:1"/><stop offset="0.46" style="stop-color:#fff8e0;stop-opacity:1"/><stop offset="1" style="stop-color:#fff;stop-opacity:1"/></linearGradient><linearGradient id="_Linear10" x1="0" y1="0" x2="1" y2="0" gradientUnits="userSpaceOnUse" gradientTransform="matrix(23,0,0,23,279.833,158.333)"><stop offset="0" style="stop-color:#ffdf73;stop-opacity:1"/><stop offset="0.46" style="stop-color:#fff8e0;stop-opacity:1"/><stop offset="1" style="stop-color:#fff;stop-opacity:1"/></linearGradient><linearGradient id="_Linear11" x1="0" y1="0" x2="1" y2="0" gradientUnits="userSpaceOnUse" gradientTransform="matrix(12,0,0,12,171.167,268.333)"><stop offset="0" style="stop-color:#ffdf73;stop-opacity:1"/><stop offset="0.46" style="stop-color:#fff8e0;stop-opacity:1"/><stop offset="1" style="stop-color:#fff;stop-opacity:1"/></linearGradient><linearGradient id="_Linear12" x1="0" y1="0" x2="1" y2="0" gradientUnits="userSpaceOnUse" gradientTransform="matrix(8,0,0,8,179.167,118.333)"><stop offset="0" style="stop-color:#ffdf73;stop-opacity:1"/><stop offset="0.46" style="stop-color:#fff8e0;stop-opacity:1"/><stop offset="1" style="stop-color:#fff;stop-opacity:1"/></linearGradient><linearGradient id="_Linear13" x1="0" y1="0" x2="1" y2="0" gradientUnits="userSpaceOnUse" gradientTransform="matrix(12.6667,0,0,12.6667,86.8333,227)"><stop offset="0" style="stop-color:#ffdf73;stop-opacity:1"/><stop offset="0.46" style="stop-color:#fff8e0;stop-opacity:1"/><stop offset="1" style="stop-color:#fff;stop-opacity:1"/></linearGradient><linearGradient id="_Linear14" x1="0" y1="0" x2="1" y2="0" gradientUnits="userSpaceOnUse" gradientTransform="matrix(22,0,0,22,237.833,239.667)"><stop offset="0" style="stop-color:#ffdf73;stop-opacity:1"/><stop offset="0.46" style="stop-color:#fff8e0;stop-opacity:1"/><stop offset="1" style="stop-color:#fff;stop-opacity:1"/></linearGradient><linearGradient id="_Linear16" x1="0" y1="0" x2="1" y2="0" gradientUnits="userSpaceOnUse" gradientTransform="matrix(241.689,0,0,352.89,88.9619,245.192)"><stop offset="0" style="stop-color:#fff;stop-opacity:0.3"/><stop offset="0.19" style="stop-color:#fff;stop-opacity:0.24"/><stop offset="0.4" style="stop-color:#fff;stop-opacity:0.18"/><stop offset="1" style="stop-color:#fff;stop-opacity:0.15"/></linearGradient></defs></svg>